<?xml version="1.0" encoding="UTF-8"?>
<svg enable-background="new 0 0 288 288" version="1.1" viewBox="0 0 288 288" xml:space="preserve" xmlns="http://www.w3.org/2000/svg">
<style type="text/css">
	.st0{opacity:0.1;}
	.st1{fill:#FFFFFF;}
</style>
<g class="st0">
		<path class="st1" d="m277.7 297.5l-4.3-1.6c1.5-4.1 3.6-7.4 6.3-10.1s6-4.8 10.1-6.3l1.6 4.3c-3.5 1.3-6.2 3-8.5 5.3-2.2 2.2-3.9 4.9-5.2 8.4z"/>
		<path class="st1" d="m260.6 297.3l-4.4-1.2c0.4-1.4 0.7-2.8 1-4.2 1.6-6.8 3.3-13.9 9-19.6s12.8-7.4 19.6-9c1.4-0.3 2.8-0.7 4.2-1l1.2 4.4c-1.4 0.4-2.9 0.7-4.3 1.1-6.5 1.5-12.6 3-17.4 7.8s-6.3 10.9-7.8 17.4c-0.4 1.5-0.7 2.9-1.1 4.3z"/>
		<path class="st1" d="m240.1 298.3l-3.4-3.1c4.2-4.7 5.6-10.5 7.1-16.7 1.6-6.8 3.3-13.9 9-19.6s12.8-7.4 19.6-9c6.2-1.5 12-2.9 16.7-7.1l3.1 3.4c-5.6 5-12.2 6.6-18.7 8.2-6.5 1.5-12.6 3-17.4 7.8s-6.3 10.9-7.8 17.4c-1.6 6.4-3.2 13.1-8.2 18.7z"/>
		<path class="st1" d="m193.9 298.8l-2.2-4.1c4.3-2.3 8.9-3.4 13.4-4.4 6.5-1.5 12.6-3 17.4-7.8s6.3-10.9 7.8-17.4c1.6-6.8 3.3-13.9 9-19.6s12.8-7.4 19.6-9c6.5-1.5 12.6-3 17.4-7.8s6.3-10.9 7.8-17.4c1.1-4.5 2.2-9.1 4.4-13.4l4.1 2.2c-2 3.7-3 7.9-4 12.3-1.6 6.8-3.3 13.9-9 19.6s-12.8 7.4-19.6 9c-6.5 1.5-12.6 3-17.4 7.8s-6.3 10.9-7.8 17.4c-1.6 6.8-3.3 13.9-9 19.6s-12.8 7.4-19.6 9c-4.5 1-8.6 2-12.3 4z"/>
		<path class="st1" d="m169.9 297.5l-4.3-1.6c1.5-4.1 3.6-7.4 6.3-10.1 5.7-5.7 12.8-7.4 19.6-9 6.5-1.5 12.6-3 17.4-7.8s6.3-10.9 7.8-17.4c1.6-6.8 3.3-13.9 9-19.6s12.8-7.4 19.6-9c6.5-1.5 12.6-3 17.4-7.8s6.3-10.9 7.8-17.4c1.6-6.8 3.3-13.9 9-19.6 2.7-2.7 6-4.8 10.1-6.3l1.6 4.3c-3.5 1.3-6.2 3-8.5 5.3-4.8 4.8-6.3 10.9-7.8 17.4-1.6 6.8-3.3 13.9-9 19.6s-12.8 7.4-19.6 9c-6.5 1.5-12.6 3-17.4 7.8s-6.3 10.9-7.8 17.4c-1.6 6.8-3.3 13.9-9 19.6s-12.8 7.4-19.6 9c-6.5 1.5-12.6 3-17.4 7.8-2.1 2.2-3.8 4.9-5.2 8.4z"/>
		<path class="st1" d="m152.9 297.3l-4.4-1.2c0.4-1.4 0.7-2.8 1-4.2 1.6-6.8 3.3-13.9 9-19.6s12.8-7.4 19.6-9c6.5-1.5 12.6-3 17.4-7.8s6.3-10.9 7.8-17.4c1.6-6.8 3.3-13.9 9-19.6s12.8-7.4 19.6-9c6.5-1.5 12.6-3 17.4-7.8s6.3-10.9 7.8-17.4c1.6-6.8 3.3-13.9 9-19.6s12.8-7.4 19.6-9c1.4-0.3 2.8-0.7 4.2-1l1.2 4.4c-1.4 0.4-2.9 0.7-4.3 1.1-6.5 1.5-12.6 3-17.4 7.8s-6.3 10.9-7.8 17.4c-1.6 6.8-3.3 13.9-9 19.6s-12.8 7.4-19.6 9c-6.5 1.5-12.6 3-17.4 7.8s-6.3 10.9-7.8 17.4c-1.6 6.8-3.3 13.9-9 19.6s-12.8 7.4-19.6 9c-6.5 1.5-12.6 3-17.4 7.8s-6.3 10.9-7.8 17.4c-0.4 1.5-0.7 2.9-1.1 4.3z"/>
		<path class="st1" d="m132.3 298.3l-3.4-3.1c4.2-4.7 5.6-10.5 7.1-16.7 1.6-6.8 3.3-13.9 9-19.6s12.8-7.4 19.6-9c6.5-1.5 12.6-3 17.4-7.8s6.3-10.9 7.8-17.4c1.6-6.8 3.3-13.9 9-19.6s12.8-7.4 19.6-9c6.5-1.5 12.6-3 17.4-7.8s6.3-10.9 7.8-17.4c1.6-6.8 3.3-13.9 9-19.6s12.8-7.4 19.6-9c6.2-1.5 12-2.9 16.7-7.1l3.1 3.4c-5.6 5-12.2 6.6-18.7 8.2-6.5 1.5-12.6 3-17.4 7.8s-6.3 10.9-7.8 17.4c-1.6 6.8-3.3 13.9-9 19.6s-12.8 7.4-19.6 9c-6.5 1.5-12.6 3-17.4 7.8s-6.3 10.9-7.8 17.4c-1.6 6.8-3.3 13.9-9 19.6s-12.8 7.4-19.6 9c-6.5 1.5-12.6 3-17.4 7.8s-6.3 10.9-7.8 17.4c-1.6 6.4-3.2 13.1-8.2 18.7z"/>
		<path class="st1" d="m86.1 298.8l-2.2-4.1c4.3-2.3 8.9-3.4 13.4-4.4 6.5-1.5 12.6-3 17.4-7.8s6.3-10.9 7.8-17.4c1.6-6.8 3.3-13.9 9-19.6s12.8-7.4 19.6-9c6.5-1.5 12.6-3 17.4-7.8s6.3-10.9 7.8-17.4c1.6-6.8 3.3-13.9 9-19.6s12.8-7.4 19.6-9c6.5-1.5 12.6-3 17.4-7.8s6.3-10.9 7.8-17.4c1.6-6.8 3.3-13.9 9-19.6s12.8-7.4 19.6-9c6.5-1.5 12.6-3 17.4-7.8s6.3-10.9 7.8-17.4c1.1-4.5 2.2-9.1 4.4-13.4l4.1 2.2c-2 3.7-3 7.9-4 12.3-1.6 6.8-3.3 13.9-9 19.6s-12.8 7.4-19.6 9c-6.5 1.5-12.6 3-17.4 7.8s-6.3 10.9-7.8 17.4c-1.6 6.8-3.3 13.9-9 19.6s-12.8 7.4-19.6 9c-6.5 1.5-12.6 3-17.4 7.8s-6.3 10.9-7.8 17.4c-1.6 6.8-3.3 13.9-9 19.6s-12.8 7.4-19.6 9c-6.5 1.5-12.6 3-17.4 7.8s-6.3 10.9-7.8 17.4c-1.6 6.8-3.3 13.9-9 19.6s-12.8 7.4-19.6 9c-4.4 1-8.6 2-12.3 4z"/>
		<path class="st1" d="m62.2 297.5l-4.3-1.6c1.5-4.1 3.6-7.4 6.3-10.1 5.7-5.7 12.8-7.4 19.6-9 6.5-1.5 12.6-3 17.4-7.8s6.3-10.9 7.8-17.4c1.6-6.8 3.3-13.9 9-19.6s12.8-7.4 19.6-9c6.5-1.5 12.6-3 17.4-7.8s6.3-10.9 7.8-17.4c1.6-6.8 3.3-13.9 9-19.6s12.8-7.4 19.6-9c6.5-1.5 12.6-3 17.4-7.8s6.3-10.9 7.8-17.4c1.6-6.8 3.3-13.9 9-19.6s12.8-7.4 19.6-9c6.5-1.5 12.6-3 17.4-7.8s6.3-10.9 7.8-17.4c1.6-6.8 3.3-13.9 9-19.6 2.7-2.7 6-4.8 10.1-6.3l1.6 4.3c-3.5 1.3-6.2 3-8.5 5.3-4.8 4.8-6.3 10.9-7.8 17.4-1.6 6.8-3.3 13.9-9 19.6s-12.8 7.4-19.6 9c-6.5 1.5-12.6 3-17.4 7.8s-6.3 10.9-7.8 17.4c-1.6 6.8-3.3 13.9-9 19.6s-12.8 7.4-19.6 9c-6.5 1.5-12.6 3-17.4 7.8s-6.3 10.9-7.8 17.4c-1.6 6.8-3.3 13.9-9 19.6s-12.8 7.4-19.6 9c-6.5 1.5-12.6 3-17.4 7.8s-6.3 10.9-7.8 17.4c-1.6 6.8-3.3 13.9-9 19.6s-12.8 7.4-19.6 9c-6.5 1.5-12.6 3-17.4 7.8-2.2 2.2-3.9 4.9-5.2 8.4z"/>
		<path class="st1" d="m45.1 297.3l-4.4-1.2c0.4-1.4 0.7-2.8 1-4.2 1.6-6.8 3.3-13.9 9-19.6s12.8-7.4 19.6-9c6.5-1.5 12.6-3 17.4-7.8s6.3-10.9 7.8-17.4c1.6-6.8 3.3-13.9 9-19.6s12.8-7.4 19.6-9c6.5-1.5 12.6-3 17.4-7.8s6.3-10.9 7.8-17.4c1.6-6.8 3.3-13.9 9-19.6s12.8-7.4 19.6-9c6.5-1.5 12.6-3 17.4-7.8s6.3-10.9 7.8-17.4c1.6-6.8 3.3-13.9 9-19.6s12.8-7.4 19.6-9c6.5-1.5 12.6-3 17.4-7.8s6.3-10.9 7.8-17.4c1.6-6.8 3.3-13.9 9-19.6s12.8-7.4 19.6-9c1.4-0.3 2.8-0.7 4.2-1l1.2 4.4c-1.4 0.4-2.9 0.7-4.3 1.1-6.5 1.5-12.6 3-17.4 7.8s-6.3 10.9-7.8 17.4c-1.6 6.8-3.3 13.9-9 19.6s-12.8 7.4-19.6 9c-6.5 1.5-12.6 3-17.4 7.8s-6.3 10.9-7.8 17.4c-1.6 6.8-3.3 13.9-9 19.6s-12.8 7.4-19.6 9c-6.5 1.5-12.6 3-17.4 7.8s-6.3 10.9-7.8 17.4c-1.6 6.8-3.3 13.9-9 19.6s-12.8 7.4-19.6 9c-6.5 1.5-12.6 3-17.4 7.8s-6.3 10.9-7.8 17.4c-1.6 6.8-3.3 13.9-9 19.6s-12.8 7.4-19.6 9c-6.5 1.5-12.6 3-17.4 7.8s-6.3 10.9-7.8 17.4c-0.3 1.5-0.7 2.9-1.1 4.3z"/>
		<path class="st1" d="m24.6 298.3l-3.4-3.1c4.2-4.7 5.6-10.5 7.1-16.7 1.6-6.8 3.3-13.9 9-19.6s12.8-7.4 19.6-9c6.5-1.5 12.6-3 17.4-7.8s6.3-10.9 7.8-17.4c1.6-6.8 3.3-13.9 9-19.6s12.8-7.4 19.6-9c6.5-1.5 12.6-3 17.4-7.8s6.3-10.9 7.8-17.4c1.6-6.8 3.3-13.9 9-19.6s12.8-7.4 19.6-9c6.5-1.5 12.6-3 17.4-7.8s6.3-10.9 7.8-17.4c1.6-6.8 3.3-13.9 9-19.6s12.8-7.4 19.6-9c6.5-1.5 12.6-3 17.4-7.8s6.3-10.9 7.8-17.4c1.6-6.8 3.3-13.9 9-19.6s12.8-7.4 19.6-9c6.2-1.5 12-2.9 16.7-7.1l3.1 3.4c-5.6 5-12.2 6.6-18.7 8.2-6.5 1.5-12.6 3-17.4 7.8s-6.3 10.9-7.8 17.4c-1.6 6.8-3.3 13.9-9 19.6s-12.8 7.4-19.6 9c-6.5 1.5-12.6 3-17.4 7.8s-6.3 10.9-7.8 17.4c-1.6 6.8-3.3 13.9-9 19.6s-12.8 7.4-19.6 9c-6.5 1.5-12.6 3-17.4 7.8s-6.3 10.9-7.8 17.4c-1.6 6.8-3.3 13.9-9 19.6s-12.8 7.4-19.6 9c-6.5 1.5-12.6 3-17.4 7.8s-6.3 10.9-7.8 17.4c-1.6 6.8-3.3 13.9-9 19.6s-12.8 7.4-19.6 9c-6.5 1.5-12.6 3-17.4 7.8s-6.3 10.9-7.8 17.4c-1.6 6.4-3.2 13.1-8.2 18.7z"/>
		<path class="st1" d="m-13.5 295.8l-1.2-4.4c1.4-0.4 2.9-0.7 4.3-1.1 6.5-1.5 12.6-3 17.4-7.8s6.3-10.9 7.8-17.4c1.6-6.8 3.3-13.9 9-19.6s12.8-7.4 19.6-9c6.5-1.5 12.6-3 17.4-7.8s6.3-10.9 7.8-17.4c1.6-6.8 3.3-13.9 9-19.6s12.8-7.4 19.6-9c6.5-1.5 12.6-3 17.4-7.8s6.3-10.9 7.8-17.4c1.6-6.8 3.3-13.9 9-19.6s12.8-7.4 19.6-9c6.5-1.5 12.6-3 17.4-7.8s6.3-10.9 7.8-17.4c1.6-6.8 3.3-13.9 9-19.6s12.8-7.4 19.6-9c6.5-1.5 12.6-3 17.4-7.8s6.3-10.9 7.8-17.4c1.6-6.8 3.3-13.9 9-19.6s12.8-7.4 19.6-9c6.5-1.5 12.6-3 17.4-7.8s6.3-10.9 7.8-17.4c0.3-1.4 0.7-2.9 1.1-4.3l4.4 1.2c-0.4 1.4-0.7 2.8-1 4.2-1.6 6.8-3.3 13.9-9 19.6s-12.8 7.4-19.6 9c-6.5 1.5-12.6 3-17.4 7.8s-6.3 10.9-7.8 17.4c-1.6 6.8-3.3 13.9-9 19.6s-12.8 7.4-19.6 9c-6.5 1.5-12.6 3-17.4 7.8s-6.3 10.9-7.8 17.4c-1.6 6.8-3.3 13.9-9 19.6s-12.8 7.4-19.6 9c-6.5 1.5-12.6 3-17.4 7.8s-6.3 10.9-7.8 17.4c-1.6 6.8-3.3 13.9-9 19.6s-12.8 7.4-19.6 9c-6.5 1.5-12.6 3-17.4 7.8s-6.3 10.9-7.8 17.4c-1.6 6.8-3.3 13.9-9 19.6s-12.8 7.4-19.6 9c-6.5 1.5-12.6 3-17.4 7.8s-6.3 10.9-7.8 17.4c-1.6 6.8-3.3 13.9-9 19.6s-12.8 7.4-19.6 9c-1.5 0.3-2.9 0.6-4.2 1z"/>
		<path class="st1" d="m-13.3 278.6l-1.6-4.3c3.5-1.3 6.2-3 8.5-5.3 4.8-4.8 6.3-10.9 7.8-17.4 1.6-6.8 3.3-13.9 9-19.6s12.8-7.4 19.6-9c6.5-1.5 12.6-3 17.4-7.8s6.3-10.9 7.8-17.4c1.6-6.8 3.3-13.9 9-19.6s12.8-7.4 19.6-9c6.5-1.5 12.6-3 17.4-7.8s6.3-10.9 7.8-17.4c1.6-6.8 3.3-13.9 9-19.6s12.8-7.4 19.6-9c6.5-1.5 12.6-3 17.4-7.8s6.3-10.9 7.8-17.4c1.6-6.8 3.3-13.9 9-19.6s12.8-7.4 19.6-9c6.5-1.5 12.6-3 17.4-7.8s6.3-10.9 7.8-17.4c1.6-6.8 3.3-13.9 9-19.6s12.8-7.4 19.6-9c6.5-1.5 12.6-3 17.4-7.8 2.3-2.3 3.9-5 5.3-8.5l4.3 1.6c-1.5 4.1-3.6 7.4-6.3 10.1-5.7 5.7-12.8 7.4-19.6 9-6.5 1.5-12.6 3-17.4 7.8s-6.3 10.9-7.8 17.4c-1.6 6.8-3.3 13.9-9 19.6s-12.8 7.4-19.6 9c-6.5 1.5-12.6 3-17.4 7.8s-6.3 10.9-7.8 17.4c-1.6 6.8-3.3 13.9-9 19.6s-12.8 7.4-19.6 9c-6.5 1.5-12.6 3-17.4 7.8s-6.3 10.9-7.8 17.4c-1.6 6.8-3.3 13.9-9 19.6s-12.8 7.4-19.6 9c-6.5 1.5-12.6 3-17.4 7.8s-6.3 10.9-7.8 17.4c-1.6 6.8-3.3 13.9-9 19.6s-12.8 7.4-19.6 9c-6.5 1.5-12.6 3-17.4 7.8s-6.3 10.9-7.8 17.4c-1.6 6.8-3.3 13.9-9 19.6-2.8 2.7-6.1 4.8-10.2 6.4z"/>
		<path class="st1" d="m-12.1 252.5l-4.1-2.2c2-3.7 3-7.9 4-12.3 1.6-6.8 3.3-13.9 9-19.6s12.8-7.4 19.6-9c6.5-1.5 12.6-3 17.4-7.8s6.3-10.9 7.8-17.4c1.6-6.8 3.3-13.9 9-19.6s12.8-7.4 19.6-9c6.5-1.5 12.6-3 17.4-7.8s6.3-10.9 7.8-17.4c1.6-6.8 3.3-13.9 9-19.6s12.8-7.4 19.6-9c6.5-1.5 12.6-3 17.4-7.8s6.3-10.9 7.8-17.4c1.6-6.8 3.3-13.9 9-19.6s12.8-7.4 19.6-9c6.5-1.5 12.6-3 17.4-7.8s6.3-10.9 7.8-17.4c1.6-6.8 3.3-13.9 9-19.6s12.8-7.4 19.6-9c4.4-1 8.5-2 12.3-4l2.2 4.1c-4.3 2.3-8.9 3.4-13.4 4.4-6.5 1.5-12.6 3-17.4 7.8s-6.3 10.9-7.8 17.4c-1.6 6.8-3.3 13.9-9 19.6s-12.8 7.4-19.6 9c-6.5 1.5-12.6 3-17.4 7.8s-6.3 10.9-7.8 17.4c-1.6 6.8-3.3 13.9-9 19.6s-12.8 7.4-19.6 9c-6.5 1.5-12.6 3-17.4 7.8s-6.3 10.9-7.8 17.4c-1.6 6.8-3.3 13.9-9 19.6s-12.8 7.4-19.6 9c-6.5 1.5-12.6 3-17.4 7.8s-6.3 10.9-7.8 17.4c-1.6 6.8-3.3 13.9-9 19.6s-12.8 7.4-19.6 9c-6.5 1.5-12.6 3-17.4 7.8s-6.3 10.9-7.8 17.4c-1 4.5-2.1 9.2-4.4 13.4z"/>
		<path class="st1" d="m-12.6 207.6l-3.1-3.4c5.6-5 12.2-6.6 18.7-8.2 6.5-1.5 12.6-3 17.4-7.8s6.3-10.9 7.8-17.4c1.6-6.8 3.3-13.9 9-19.6s12.8-7.4 19.6-9c6.5-1.5 12.6-3 17.4-7.8s6.3-10.9 7.8-17.4c1.6-6.8 3.3-13.9 9-19.6s12.8-7.4 19.6-9c6.5-1.5 12.6-3 17.4-7.8s6.3-10.9 7.8-17.4c1.6-6.8 3.3-13.9 9-19.6s12.8-7.4 19.6-9c6.5-1.5 12.6-3 17.4-7.8s6.3-10.9 7.8-17.4c1.8-6.7 3.4-13.4 8.4-19l3.4 3.1c-4.2 4.7-5.6 10.5-7.1 16.7-1.6 6.8-3.3 13.9-9 19.6s-12.8 7.4-19.6 9c-6.5 1.5-12.6 3-17.4 7.8s-6.3 10.9-7.8 17.4c-1.6 6.8-3.3 13.9-9 19.6s-12.8 7.4-19.6 9c-6.5 1.5-12.6 3-17.4 7.8s-6.3 10.9-7.8 17.4c-1.6 6.8-3.3 13.9-9 19.6s-12.8 7.4-19.6 9c-6.5 1.5-12.6 3-17.4 7.8s-6.3 10.9-7.8 17.4c-1.6 6.8-3.3 13.9-9 19.6s-12.8 7.4-19.6 9c-6.4 1.7-12.2 3.1-16.9 7.4z"/>
		<path class="st1" d="m-13.5 188l-1.2-4.4c1.4-0.4 2.9-0.7 4.3-1.1 6.5-1.5 12.6-3 17.4-7.8s6.3-10.9 7.8-17.4c1.6-6.8 3.3-13.9 9-19.6s12.8-7.4 19.6-9c6.5-1.5 12.6-3 17.4-7.8s6.3-10.9 7.8-17.4c1.6-6.8 3.3-13.9 9-19.6s12.8-7.4 19.6-9c6.5-1.5 12.6-3 17.4-7.8s6.3-10.9 7.8-17.4c1.6-6.8 3.3-13.9 9-19.6s12.8-7.4 19.6-9c6.5-1.5 12.6-3 17.4-7.8s6.3-10.9 7.8-17.4c0.3-1.4 0.7-2.9 1.1-4.3l4.4 1.2c-0.4 1.4-0.7 2.8-1 4.2-1.6 6.8-3.3 13.9-9 19.6s-12.8 7.4-19.6 9c-6.5 1.5-12.6 3-17.4 7.8s-6.3 10.9-7.8 17.4c-1.6 6.8-3.3 13.9-9 19.6s-12.8 7.4-19.6 9c-6.5 1.5-12.6 3-17.4 7.8s-6.3 10.9-7.8 17.4c-1.6 6.8-3.3 13.9-9 19.6s-12.8 7.4-19.6 9c-6.5 1.5-12.6 3-17.4 7.8s-6.3 10.9-7.8 17.4c-1.6 6.8-3.3 13.9-9 19.6s-12.8 7.4-19.6 9c-1.5 0.3-2.9 0.7-4.2 1z"/>
		<path class="st1" d="m-13.3 170.8l-1.6-4.3c3.5-1.3 6.2-3 8.5-5.3 4.8-4.8 6.3-10.9 7.8-17.4 1.6-6.8 3.3-13.9 9-19.6s12.8-7.4 19.6-9c6.5-1.5 12.6-3 17.4-7.8s6.3-10.9 7.8-17.4c1.6-6.8 3.3-13.9 9-19.6s12.8-7.4 19.6-9c6.5-1.5 12.6-3 17.4-7.8s6.3-10.9 7.8-17.4c1.6-6.8 3.3-13.9 9-19.6s12.8-7.4 19.6-9c6.5-1.5 12.6-3 17.4-7.8 2.3-2.3 3.9-5 5.3-8.5l4.3 1.6c-1.5 4.1-3.6 7.4-6.3 10.1-5.7 5.7-12.8 7.4-19.6 9-6.5 1.5-12.6 3-17.4 7.8s-6.3 10.9-7.8 17.4c-1.6 6.8-3.3 13.9-9 19.6s-12.8 7.4-19.6 9c-6.5 1.5-12.6 3-17.4 7.8s-6.3 10.9-7.8 17.4c-1.6 6.8-3.3 13.9-9 19.6s-12.8 7.4-19.6 9c-6.5 1.5-12.6 3-17.4 7.8s-6.3 10.9-7.8 17.4c-1.6 6.8-3.3 13.9-9 19.6-2.8 2.8-6.1 4.9-10.2 6.4z"/>
		<path class="st1" d="m-12.1 144.8l-4.1-2.2c2-3.7 3-7.9 4-12.3 1.6-6.8 3.3-13.9 9-19.6s12.8-7.4 19.6-9c6.5-1.5 12.6-3 17.4-7.8s6.3-10.9 7.8-17.4c1.6-6.8 3.3-13.9 9-19.6s12.8-7.4 19.6-9c6.5-1.5 12.6-3 17.4-7.8s6.3-10.9 7.8-17.4c1.6-6.8 3.3-13.9 9-19.6s12.8-7.4 19.6-9c4.4-1 8.5-2 12.3-4l2.2 4.1c-4.3 2.3-8.9 3.4-13.4 4.4-6.5 1.5-12.6 3-17.4 7.8s-6.3 10.9-7.8 17.4c-1.6 6.8-3.3 13.9-9 19.6s-12.8 7.4-19.6 9c-6.5 1.5-12.6 3-17.4 7.8s-6.3 10.9-7.8 17.4c-1.6 6.8-3.3 13.9-9 19.6s-12.8 7.4-19.6 9c-6.5 1.5-12.6 3-17.4 7.8s-6.3 10.9-7.8 17.4c-1 4.5-2.1 9.1-4.4 13.4z"/>
		<path class="st1" d="m-12.6 99.8l-3.1-3.4c5.6-5 12.2-6.6 18.7-8.2 6.5-1.5 12.6-3 17.4-7.8s6.3-10.9 7.8-17.4c1.6-6.8 3.3-13.9 9-19.6s12.8-7.4 19.6-9c6.5-1.5 12.6-3 17.4-7.8s6.3-10.9 7.8-17.4c1.7-6.5 3.3-13.2 8.3-18.8l3.4 3.1c-4.2 4.7-5.6 10.5-7.1 16.7-1.6 6.8-3.3 13.9-9 19.6s-12.8 7.4-19.6 9c-6.5 1.5-12.6 3-17.4 7.8s-6.3 10.9-7.8 17.4c-1.6 6.8-3.3 13.9-9 19.6s-12.8 7.4-19.6 9c-6.3 1.6-12.1 3-16.8 7.2z"/>
		<path class="st1" d="m-13.5 80.3l-1.2-4.4c1.4-0.4 2.9-0.7 4.3-1.1 6.5-1.5 12.6-3 17.4-7.8s6.3-10.9 7.8-17.4c1.6-6.8 3.3-13.9 9-19.6s12.8-7.4 19.6-9c6.5-1.5 12.6-3 17.4-7.8s6.3-10.9 7.8-17.4c0.3-1.4 0.7-2.9 1.1-4.3l4.4 1.2c-0.4 1.4-0.7 2.8-1 4.2-1.6 6.8-3.3 13.9-9 19.6s-12.8 7.4-19.6 9c-6.5 1.5-12.6 3-17.4 7.8s-6.3 10.9-7.8 17.4c-1.6 6.8-3.3 13.9-9 19.6s-12.8 7.4-19.6 9c-1.5 0.3-2.9 0.6-4.2 1z"/>
		<path class="st1" d="m-13.3 63.1l-1.6-4.3c3.5-1.3 6.2-3 8.5-5.3 4.8-4.8 6.3-10.9 7.8-17.4 1.6-6.8 3.3-13.9 9-19.6s12.8-7.4 19.6-9c6.5-1.5 12.6-3 17.4-7.8 2.3-2.3 3.9-5 5.3-8.5l4.3 1.6c-1.5 4.1-3.6 7.4-6.3 10.1-5.7 5.7-12.8 7.4-19.6 9-6.5 1.5-12.6 3-17.4 7.8s-6.3 10.9-7.8 17.4c-1.7 6.9-3.4 13.9-9.1 19.7-2.7 2.7-6 4.7-10.1 6.3z"/>
		<path class="st1" d="m-12.1 37l-4.1-2.2c2-3.7 3-7.9 4-12.3 1.6-6.8 3.3-13.9 9-19.6 5.8-5.6 12.9-7.3 19.7-8.9 4.4-1 8.5-2 12.3-4l2.1 4c-4.2 2.3-8.9 3.4-13.3 4.4-6.5 1.6-12.7 3-17.5 7.8s-6.2 11-7.8 17.5c-1 4.4-2.1 9.1-4.4 13.3z"/>
</g>
</svg>